<svg width="24" height="24" viewBox="0 0 24 24" fill="none" xmlns="http://www.w3.org/2000/svg">
<path d="M6.91708 14.854L9.91008 10.965L13.3241 13.645L16.2531 9.86499" stroke="white" stroke-width="1.5" stroke-linecap="round" stroke-linejoin="round"/>
<path fill-rule="evenodd" clip-rule="evenodd" d="M19.6671 2.3501C20.7291 2.3501 21.5891 3.2101 21.5891 4.2721C21.5891 5.3331 20.7291 6.1941 19.6671 6.1941C18.6051 6.1941 17.7451 5.3331 17.7451 4.2721C17.7451 3.2101 18.6051 2.3501 19.6671 2.3501Z" stroke="white" stroke-width="1.5" stroke-linecap="round" stroke-linejoin="round"/>
<path d="M20.7555 9.26898C20.8885 10.164 20.9495 11.172 20.9495 12.303C20.9495 19.241 18.6375 21.553 11.6995 21.553C4.76249 21.553 2.44949 19.241 2.44949 12.303C2.44949 5.36598 4.76249 3.05298 11.6995 3.05298C12.8095 3.05298 13.8005 3.11198 14.6825 3.23998" stroke="white" stroke-width="1.5" stroke-linecap="round" stroke-linejoin="round"/>
</svg>
