<svg width="24" height="24" viewBox="0 0 24 24" fill="none" xmlns="http://www.w3.org/2000/svg">
<path fill-rule="evenodd" clip-rule="evenodd" d="M15.4381 12.4983C15.4381 10.7614 14.0297 9.35303 12.2928 9.35303C10.556 9.35303 9.14758 10.7614 9.14758 12.4983C9.14758 14.2351 10.556 15.6436 12.2928 15.6436C14.0297 15.6436 15.4381 14.2351 15.4381 12.4983Z" stroke="white" stroke-width="1.5" stroke-linecap="round" stroke-linejoin="round"/>
<path fill-rule="evenodd" clip-rule="evenodd" d="M12.2925 20.2002C20.3378 20.2002 21.2957 17.7897 21.2957 12.5665C21.2957 8.90545 20.8115 6.94651 17.762 6.1044C17.482 6.01598 17.1715 5.84756 16.9199 5.57072C16.5136 5.12545 16.2167 3.75809 15.2357 3.3444C14.2546 2.93177 10.3146 2.95072 9.34937 3.3444C8.38516 3.73914 8.07147 5.12545 7.66516 5.57072C7.41358 5.84756 7.1041 6.01598 6.82305 6.1044C3.77358 6.94651 3.28937 8.90545 3.28937 12.5665C3.28937 17.7897 4.24726 20.2002 12.2925 20.2002Z" stroke="white" stroke-width="1.5" stroke-linecap="round" stroke-linejoin="round"/>
<path d="M17.2045 9H17.2135" stroke="white" stroke-width="1.5" stroke-linecap="round" stroke-linejoin="round"/>
</svg>
