<svg width="24" height="24" viewBox="0 0 24 24" fill="none" xmlns="http://www.w3.org/2000/svg">
<path d="M6.42 17.7298C4.19 16.2698 2.75 14.0698 2.75 12.1398C2.75 8.85984 6.89 4.83984 12 4.83984C14.09 4.83984 16.03 5.50984 17.59 6.54984" stroke="white" stroke-width="1.5" stroke-linecap="round" stroke-linejoin="round"/>
<path d="M19.8497 8.61035C20.7407 9.74035 21.2597 10.9904 21.2597 12.1404C21.2597 15.4204 17.1097 19.4404 11.9997 19.4404C11.0897 19.4404 10.2007 19.3104 9.36969 19.0804" stroke="white" stroke-width="1.5" stroke-linecap="round" stroke-linejoin="round"/>
<path d="M9.76572 14.3672C9.17072 13.7782 8.83772 12.9752 8.84072 12.1382C8.83672 10.3932 10.2487 8.97518 11.9947 8.97218C12.8347 8.97018 13.6407 9.30318 14.2347 9.89718" stroke="white" stroke-width="1.5" stroke-linecap="round" stroke-linejoin="round"/>
<path d="M15.1095 12.6992C14.8755 13.9912 13.8645 15.0042 12.5725 15.2412" stroke="white" stroke-width="1.5" stroke-linecap="round" stroke-linejoin="round"/>
<path d="M19.8917 4.25L4.11768 20.024" stroke="white" stroke-width="1.5" stroke-linecap="round" stroke-linejoin="round"/>
</svg>
