<svg width="24" height="24" viewBox="0 0 24 24" fill="none" xmlns="http://www.w3.org/2000/svg">
<path fill-rule="evenodd" clip-rule="evenodd" d="M2.75 12C2.75 18.937 5.063 21.25 12 21.25C18.937 21.25 21.25 18.937 21.25 12C21.25 5.063 18.937 2.75 12 2.75C5.063 2.75 2.75 5.063 2.75 12Z" stroke="white" stroke-width="1.5" stroke-linecap="round" stroke-linejoin="round"/>
<path fill-rule="evenodd" clip-rule="evenodd" d="M10.5986 8.78419C10.5986 9.75719 9.8106 10.5452 8.8376 10.5452C7.8656 10.5452 7.0766 9.75719 7.0766 8.78419C7.0766 7.81119 7.8656 7.02319 8.8376 7.02319C9.8106 7.02319 10.5986 7.81119 10.5986 8.78419Z" stroke="white" stroke-width="1.5" stroke-linecap="round" stroke-linejoin="round"/>
<path d="M21.1201 14.6664C20.2391 13.7604 18.9931 11.9294 16.7041 11.9294C14.4151 11.9294 14.3651 15.9674 12.0291 15.9674C9.69213 15.9674 8.75113 14.5964 7.22813 15.3124C5.70613 16.0274 4.46613 18.8734 4.46613 18.8734" stroke="white" stroke-width="1.5" stroke-linecap="round" stroke-linejoin="round"/>
</svg>
