<svg width="37" height="38" viewBox="0 0 37 38" fill="none" xmlns="http://www.w3.org/2000/svg">
<path d="M0 30.1582C0.0668581 30.1125 0.0923857 30.043 0.119737 29.9693C0.265609 29.5706 0.499612 29.4006 0.923857 29.3982C1.71218 29.3933 2.5011 29.3963 3.29003 29.3963C4.24853 29.3963 5.20642 29.3908 6.16492 29.4C6.39467 29.4024 6.56182 29.3342 6.72106 29.1647C7.75676 28.0639 8.80157 26.9717 9.84334 25.877C10.9027 24.7634 11.9597 23.648 13.0252 22.5399C13.165 22.3948 13.1923 22.2406 13.1923 22.056C13.1899 19.5387 13.1905 17.022 13.1905 14.5047C13.1905 14.3944 13.1887 14.2834 13.1929 14.1731C13.2154 13.5728 13.6901 13.0943 14.2888 13.0845C14.882 13.0748 15.4758 13.0815 16.0697 13.0815C18.0882 13.0815 20.1061 13.0784 22.1246 13.0858C22.3543 13.0864 22.5202 13.0169 22.6856 12.8578C24.2762 11.3267 25.8729 9.80292 27.4696 8.27852C27.9546 7.81529 28.4396 7.35146 28.9319 6.89676C29.0754 6.76449 29.1289 6.62126 29.1283 6.42743C29.1222 4.70983 29.1252 2.99161 29.124 1.274C29.124 1.1204 29.1276 0.968635 29.1763 0.820524C29.2796 0.508453 29.547 0.296342 29.874 0.273181C29.95 0.267695 30.0266 0.268914 30.1032 0.268914C32.0111 0.268914 33.9189 0.268914 35.8268 0.268914C35.9198 0.268914 36.014 0.267086 36.1064 0.279276C36.4687 0.328647 36.7537 0.636451 36.7799 1.00338C36.7872 1.10517 36.7853 1.20756 36.7853 1.30935C36.7853 3.17142 36.7853 5.03409 36.7853 6.89615C36.7853 6.99794 36.7872 7.10034 36.7805 7.20213C36.7549 7.60197 36.4407 7.91647 36.0402 7.94329C35.9472 7.94939 35.8536 7.94634 35.7606 7.94634C34.0648 7.94634 32.3684 7.94939 30.6727 7.94268C30.4618 7.94207 30.3074 8.00181 30.1542 8.14992C28.9015 9.35858 27.6428 10.5605 26.384 11.7625C25.5611 12.5482 24.7375 13.3332 23.9079 14.111C23.7529 14.2566 23.6884 14.4078 23.689 14.6223C23.6957 17.1817 23.6933 19.7416 23.6927 22.301C23.6927 22.4113 23.6963 22.5235 23.6787 22.6313C23.5809 23.2299 23.1268 23.6084 22.499 23.609C20.5826 23.6114 18.6662 23.6102 16.7498 23.6102C16.063 23.6102 15.3761 23.6157 14.6893 23.6066C14.5033 23.6041 14.3708 23.6657 14.2444 23.7992C12.6921 25.44 11.1355 27.0765 9.57955 28.7137C9.04104 29.2799 8.50557 29.8486 7.95672 30.4045C7.79383 30.5696 7.73001 30.7433 7.73062 30.9713C7.7367 32.6383 7.73366 34.3047 7.73366 35.9718C7.73366 36.065 7.73487 36.1589 7.73184 36.2521C7.72029 36.6428 7.54706 36.8878 7.1836 37.0244C7.12829 37.0451 7.07055 37.0591 7.02314 37.0981H0.763398C0.736655 37.0792 0.711735 37.0524 0.681953 37.0427C0.390816 36.9488 0.19632 36.7605 0.109404 36.4636C0.0923857 36.4051 0.0553099 36.3606 0.000607801 36.3326V30.1582H0Z" fill="#02A4EF"/>
<path d="M19.6404 0.00182854C19.7055 0.0633894 19.7954 0.0658274 19.8726 0.0993506C20.326 0.296223 20.5844 0.633284 20.616 1.13369C20.6214 1.21842 20.619 1.30375 20.6196 1.38847C20.6196 4.00694 20.6196 6.62602 20.6196 9.24448C20.6196 9.34627 20.6208 9.44867 20.6129 9.55046C20.5704 10.113 20.1163 10.5677 19.5547 10.608C19.4447 10.6159 19.3347 10.6128 19.2241 10.6128C16.7145 10.6128 14.2049 10.6128 11.6953 10.6128C11.5853 10.6128 11.4758 10.6128 11.3901 10.6128C11.2801 10.6689 11.2212 10.7427 11.1555 10.8085C10.166 11.8002 9.17897 12.7943 8.18461 13.7811C8.05271 13.9121 8.00105 14.0462 8.00166 14.2297C8.00713 15.9302 8.0047 17.6308 8.00409 19.3307C8.00409 19.441 8.0053 19.5526 7.99376 19.6617C7.95121 20.0731 7.63272 20.3809 7.22246 20.4102C7.14648 20.4156 7.0699 20.4138 6.99392 20.4138C5.09454 20.4138 3.19577 20.4138 1.2964 20.4138C1.21981 20.4138 1.14384 20.415 1.06786 20.4102C0.696497 20.3852 0.393205 20.1279 0.306897 19.7659C0.278938 19.6495 0.273468 19.5306 0.273468 19.4112C0.273468 17.4979 0.273468 15.5852 0.274684 13.672C0.274684 13.5787 0.27833 13.4843 0.293525 13.3928C0.361599 12.9881 0.662461 12.7077 1.06908 12.6699C1.16147 12.6614 1.25567 12.6651 1.34867 12.6651C3.02741 12.6651 4.70616 12.6651 6.38491 12.6651C6.49431 12.6651 6.60432 12.6651 6.7119 12.6651C6.78241 12.5986 6.84562 12.5426 6.90518 12.4828C7.89468 11.4911 8.88115 10.4964 9.87611 9.51023C10.0147 9.37248 10.0688 9.23229 10.0682 9.03969C10.0633 6.48034 10.0645 3.92161 10.0651 1.36226C10.0651 1.20074 10.0554 1.03739 10.1016 0.880746C10.2086 0.516258 10.4377 0.258434 10.786 0.106665C10.8711 0.0694845 10.9689 0.0646084 11.0419 0H19.641L19.6404 0.00182854Z" fill="#F35123"/>
<path d="M16.582 31.688C16.582 30.3532 16.582 29.0178 16.582 27.6829C16.582 27.5299 16.5802 27.3776 16.6264 27.2282C16.7723 26.7522 17.1904 26.4304 17.7071 26.4023C17.8086 26.3968 17.9107 26.3999 18.0122 26.3999C20.5224 26.3999 23.032 26.3975 25.5422 26.4042C25.7628 26.4042 25.9203 26.3414 26.0759 26.1829C27.0465 25.1961 28.0245 24.2166 29.0073 23.242C29.1465 23.1043 29.2006 22.9635 29.2 22.7709C29.1945 21.0874 29.1969 19.4033 29.1969 17.7198C29.1969 17.618 29.1951 17.5156 29.2006 17.4138C29.2261 16.9518 29.5549 16.6251 30.0168 16.5995C30.0594 16.5971 30.1013 16.5977 30.1439 16.5977C32.0773 16.5977 34.0107 16.5977 35.9441 16.5977C36.0037 16.5977 36.0633 16.5959 36.1222 16.6014C36.5477 16.6398 36.8595 16.9518 36.8965 17.3779C36.9044 17.4711 36.9038 17.565 36.9038 17.6583C36.9038 19.5289 36.9038 21.3994 36.9038 23.2707C36.9038 23.3724 36.9045 23.4754 36.8947 23.5766C36.8546 23.9887 36.5404 24.2983 36.1289 24.3312C36.028 24.3391 35.9253 24.3355 35.8238 24.3355C34.1365 24.3355 32.4487 24.3385 30.7614 24.3318C30.5596 24.3312 30.4131 24.3861 30.2697 24.5311C29.2917 25.5228 28.3083 26.5084 27.32 27.4897C27.1754 27.6329 27.1182 27.7804 27.1189 27.9822C27.1243 30.5415 27.1225 33.1015 27.1219 35.6608C27.1219 35.8138 27.1298 35.9668 27.0903 36.1174C26.9633 36.5983 26.5402 36.9481 26.0406 36.9816C25.9646 36.9871 25.8881 36.9853 25.8115 36.9853C23.1742 36.9853 20.537 36.9853 17.9003 36.9853C17.7903 36.9853 17.6785 36.9884 17.5703 36.9719C16.999 36.8835 16.5978 36.43 16.5857 35.8473C16.5759 35.3798 16.5826 34.9117 16.5826 34.4442C16.5826 33.5257 16.5826 32.6078 16.5826 31.6892L16.582 31.688Z" fill="#7FB902"/>
<path d="M0.161659 3.50342C0.161659 2.65315 0.176246 1.80287 0.156797 0.952604C0.142817 0.360157 0.571317 0.114523 0.992523 0.116961C2.67127 0.126714 4.35002 0.121228 6.02876 0.120618C6.14789 0.120618 6.26641 0.125495 6.38007 0.165722C6.66148 0.265683 6.83106 0.458289 6.86388 0.760607C6.87421 0.853253 6.87239 0.947118 6.87239 1.04098C6.87239 2.67326 6.873 4.30614 6.87239 5.93842C6.87239 6.63266 6.63231 6.8728 5.94063 6.8728C4.32145 6.8728 2.70166 6.8728 1.08248 6.8728C1.02291 6.8728 0.963956 6.8728 0.904392 6.87159C0.393231 6.85452 0.152542 6.46626 0.15862 6.10543C0.170168 5.35755 0.161659 4.60907 0.161659 3.86059C0.161659 3.74174 0.161659 3.62227 0.161659 3.50342Z" fill="#FFB706"/>
<path d="M30.2818 33.5514C30.2818 32.7608 30.2818 31.9703 30.2818 31.1798C30.2818 31.103 30.2806 31.0268 30.283 30.95C30.2964 30.5056 30.5766 30.2289 31.0252 30.2186C31.1607 30.2155 31.2962 30.2173 31.4318 30.2173C32.9659 30.2173 34.5 30.2173 36.0347 30.2173C36.1277 30.2173 36.2213 30.2149 36.3143 30.2204C36.6899 30.2411 36.9597 30.5087 36.9877 30.8878C36.9932 30.964 36.9926 31.0408 36.9926 31.117C36.9926 32.7578 36.9792 34.398 36.9999 36.0388C37.0078 36.6629 36.696 36.9604 36.0973 36.9531C34.4532 36.9336 32.8085 36.9464 31.1644 36.9458C31.0714 36.9458 30.9772 36.9458 30.8854 36.9348C30.5736 36.897 30.3232 36.6428 30.2903 36.3295C30.2806 36.2369 30.283 36.143 30.283 36.0492C30.283 35.216 30.283 34.3834 30.283 33.5502L30.2818 33.5514Z" fill="#FFB706"/>
</svg>
